<svg width="104" height="133" viewBox="0 0 104 133" fill="none" xmlns="http://www.w3.org/2000/svg">
<path fill-rule="evenodd" clip-rule="evenodd" d="M36.4383 132.763C40.1627 130.701 66.3327 115.243 66.3327 88C66.3327 68.67 52.752 53 35.9993 53C19.2467 53 5.66602 68.67 5.66602 88C5.66602 115.243 31.836 130.701 35.5604 132.763C35.8439 132.92 36.1548 132.92 36.4383 132.763ZM35.9993 103C43.1791 103 48.9994 96.2843 48.9994 88C48.9994 79.7157 43.1791 73 35.9993 73C28.8196 73 22.9993 79.7157 22.9993 88C22.9993 96.2843 28.8196 103 35.9993 103Z" fill="#222222"/>
</svg>
